# xmcd
#
# Track frame offsets:
#	150
#	25006
#	49376
#	73341
#	97959
#	120907
#
# Disc length: 1918 seconds
#
# Revision: 0
# Processed by: cddbd v1.5PL3 Copyright (c) Steve Scherf et al.
# Submitted via: dBpowerAMP V4.0
#
DISCID=49077c06
DTITLE=Chicco - We dont need war
DYEAR=1998
DGENRE=Blues
TTITLE0=tribute to our heroes
TTITLE1=hi tshikeni
TTITLE2=Catch that man
TTITLE3=we dont need war
TTITLE4=Unite us
TTITLE5=reprise trubute
EXTD=
EXTT0=
EXTT1=
EXTT2=
EXTT3=
EXTT4=
EXTT5=
PLAYORDER=
